<svg width="35" height="35" viewBox="0 0 35 35" fill="none" xmlns="http://www.w3.org/2000/svg">
<path fill-rule="evenodd" clip-rule="evenodd" d="M4.32324 9.18689C4.32324 8.29152 5.04909 7.56567 5.94446 7.56567H28.6415C29.5368 7.56567 30.2627 8.29152 30.2627 9.18689C30.2627 10.0823 29.5368 10.8081 28.6415 10.8081H5.94446C5.04909 10.8081 4.32324 10.0823 4.32324 9.18689ZM4.32324 17.8334C4.32324 16.938 5.04909 16.2122 5.94446 16.2122H28.6415C29.5368 16.2122 30.2627 16.938 30.2627 17.8334C30.2627 18.7287 29.5368 19.4546 28.6415 19.4546H5.94446C5.04909 19.4546 4.32324 18.7287 4.32324 17.8334ZM4.32324 26.4799C4.32324 25.5845 5.04909 24.8586 5.94446 24.8586H28.6415C29.5368 24.8586 30.2627 25.5845 30.2627 26.4799C30.2627 27.3752 29.5368 28.1011 28.6415 28.1011H5.94446C5.04909 28.1011 4.32324 27.3752 4.32324 26.4799Z" fill="#F5F5F5"/>
</svg>
