<svg width="30" height="30" viewBox="0 0 30 30" fill="none" xmlns="http://www.w3.org/2000/svg">
<path fill-rule="evenodd" clip-rule="evenodd" d="M8.95333 0.421313C10.5173 0.349313 11.016 0.333313 15 0.333313C18.984 0.333313 19.4827 0.350646 21.0453 0.421313C22.608 0.49198 23.6747 0.741313 24.608 1.10265C25.5853 1.47198 26.472 2.04931 27.2053 2.79598C27.952 3.52798 28.528 4.41331 28.896 5.39198C29.2587 6.32531 29.5067 7.39198 29.5787 8.95198C29.6507 10.5186 29.6667 11.0173 29.6667 15C29.6667 18.984 29.6493 19.4826 29.5787 21.0466C29.508 22.6066 29.2587 23.6733 28.896 24.6066C28.528 25.5854 27.951 26.4722 27.2053 27.2053C26.472 27.952 25.5853 28.528 24.608 28.896C23.6747 29.2586 22.608 29.5066 21.048 29.5786C19.4827 29.6506 18.984 29.6666 15 29.6666C11.016 29.6666 10.5173 29.6493 8.95333 29.5786C7.39333 29.508 6.32666 29.2586 5.39333 28.896C4.41456 28.5279 3.52776 27.951 2.79466 27.2053C2.0485 26.4729 1.47108 25.5865 1.10266 24.608C0.741328 23.6746 0.493328 22.608 0.421328 21.048C0.349328 19.4813 0.333328 18.9826 0.333328 15C0.333328 11.016 0.350662 10.5173 0.421328 8.95465C0.491995 7.39198 0.741328 6.32531 1.10266 5.39198C1.47163 4.41342 2.04949 3.52706 2.79599 2.79465C3.52805 2.04865 4.41396 1.47124 5.392 1.10265C6.32533 0.741313 7.392 0.493313 8.952 0.421313H8.95333ZM20.9267 3.06131C19.38 2.99065 18.916 2.97598 15 2.97598C11.084 2.97598 10.62 2.99065 9.07333 3.06131C7.64266 3.12665 6.86666 3.36531 6.34933 3.56665C5.66533 3.83331 5.176 4.14931 4.66266 4.66265C4.17606 5.13605 3.80157 5.71236 3.56666 6.34931C3.36533 6.86665 3.12666 7.64265 3.06133 9.07331C2.99066 10.62 2.976 11.084 2.976 15C2.976 18.916 2.99066 19.38 3.06133 20.9266C3.12666 22.3573 3.36533 23.1333 3.56666 23.6506C3.80133 24.2866 4.176 24.864 4.66266 25.3373C5.136 25.824 5.71333 26.1986 6.34933 26.4333C6.86666 26.6346 7.64266 26.8733 9.07333 26.9386C10.62 27.0093 11.0827 27.024 15 27.024C18.9173 27.024 19.38 27.0093 20.9267 26.9386C22.3573 26.8733 23.1333 26.6346 23.6507 26.4333C24.3347 26.1666 24.824 25.8506 25.3373 25.3373C25.824 24.864 26.1987 24.2866 26.4333 23.6506C26.6347 23.1333 26.8733 22.3573 26.9387 20.9266C27.0093 19.38 27.024 18.916 27.024 15C27.024 11.084 27.0093 10.62 26.9387 9.07331C26.8733 7.64265 26.6347 6.86665 26.4333 6.34931C26.1667 5.66531 25.8507 5.17598 25.3373 4.66265C24.8639 4.17607 24.2876 3.80159 23.6507 3.56665C23.1333 3.36531 22.3573 3.12665 20.9267 3.06131ZM13.1267 19.5213C14.1729 19.9568 15.3378 20.0156 16.4226 19.6876C17.5073 19.3596 18.4445 18.6652 19.0741 17.723C19.7038 16.7807 19.9867 15.6491 19.8747 14.5215C19.7627 13.3938 19.2627 12.3399 18.46 11.54C17.9483 11.0286 17.3296 10.6371 16.6484 10.3935C15.9673 10.15 15.2406 10.0605 14.5207 10.1315C13.8007 10.2025 13.1055 10.4322 12.4851 10.8042C11.8646 11.1761 11.3343 11.681 10.9324 12.2824C10.5305 12.8839 10.2669 13.567 10.1607 14.2826C10.0545 14.9982 10.1082 15.7284 10.318 16.4207C10.5279 17.113 10.8886 17.7501 11.3743 18.2863C11.8599 18.8224 12.4584 19.2442 13.1267 19.5213ZM9.66933 9.66931C10.3694 8.96928 11.2004 8.41398 12.1151 8.03513C13.0297 7.65627 14.01 7.46128 15 7.46128C15.99 7.46128 16.9703 7.65627 17.8849 8.03513C18.7996 8.41398 19.6306 8.96928 20.3307 9.66931C21.0307 10.3693 21.586 11.2004 21.9648 12.115C22.3437 13.0297 22.5387 14.01 22.5387 15C22.5387 15.99 22.3437 16.9703 21.9648 17.8849C21.586 18.7996 21.0307 19.6306 20.3307 20.3306C18.9169 21.7444 16.9994 22.5387 15 22.5387C13.0006 22.5387 11.0831 21.7444 9.66933 20.3306C8.25555 18.9169 7.46129 16.9994 7.46129 15C7.46129 13.0006 8.25555 11.0831 9.66933 9.66931ZM24.2107 8.58398C24.3841 8.42034 24.523 8.22355 24.6191 8.00528C24.7151 7.787 24.7664 7.55167 24.7699 7.31322C24.7734 7.07477 24.729 6.83804 24.6393 6.61706C24.5497 6.39608 24.4166 6.19533 24.2479 6.0267C24.0793 5.85807 23.8786 5.72499 23.6576 5.63534C23.4366 5.54568 23.1999 5.50128 22.9614 5.50476C22.723 5.50823 22.4876 5.55952 22.2694 5.65557C22.0511 5.75163 21.8543 5.89051 21.6907 6.06398C21.3724 6.40135 21.1982 6.84947 21.2049 7.31322C21.2117 7.77696 21.3989 8.21982 21.7269 8.54777C22.0548 8.87572 22.4977 9.06295 22.9614 9.06971C23.4252 9.07647 23.8733 8.90223 24.2107 8.58398Z" fill="#808080"/>
</svg>
