<svg width="24" height="25" viewBox="0 0 24 25" fill="none" xmlns="http://www.w3.org/2000/svg">
<path fill-rule="evenodd" clip-rule="evenodd" d="M17.415 14.7648C17.117 14.6158 15.656 13.8978 15.384 13.7978C15.112 13.6988 14.914 13.6498 14.715 13.9478C14.517 14.2438 13.948 14.9138 13.775 15.1118C13.601 15.3108 13.428 15.3348 13.131 15.1868C12.834 15.0368 11.876 14.7238 10.741 13.7118C9.858 12.9238 9.261 11.9508 9.088 11.6528C8.915 11.3558 9.069 11.1948 9.218 11.0468C9.352 10.9138 9.515 10.6998 9.664 10.5268C9.813 10.3528 9.862 10.2288 9.961 10.0298C10.061 9.83176 10.011 9.65876 9.936 9.50976C9.862 9.36076 9.268 7.89776 9.02 7.30276C8.779 6.72376 8.534 6.80276 8.352 6.79276C8.178 6.78476 7.98 6.78276 7.782 6.78276C7.584 6.78276 7.262 6.85676 6.99 7.15476C6.717 7.45176 5.95 8.17076 5.95 9.63376C5.95 11.0958 7.014 12.5088 7.163 12.7078C7.312 12.9058 9.258 15.9078 12.239 17.1948C12.949 17.5008 13.502 17.6838 13.933 17.8198C14.645 18.0468 15.293 18.0148 15.805 17.9378C16.375 17.8528 17.563 17.2188 17.811 16.5248C18.058 15.8308 18.058 15.2358 17.984 15.1118C17.91 14.9878 17.712 14.9138 17.414 14.7648H17.415ZM11.993 22.1678H11.989C10.2184 22.1681 8.48037 21.6921 6.957 20.7898L6.597 20.5758L2.855 21.5578L3.854 17.9098L3.619 17.5358C2.62914 15.9601 2.10529 14.1365 2.108 12.2758C2.11 6.82576 6.544 2.39176 11.997 2.39176C14.637 2.39176 17.119 3.42176 18.985 5.28976C19.9054 6.20634 20.6349 7.29633 21.1313 8.49666C21.6277 9.69699 21.8811 10.9838 21.877 12.2828C21.875 17.7328 17.441 22.1678 11.993 22.1678ZM20.405 3.87076C19.3032 2.76169 17.9922 1.8823 16.5481 1.28356C15.1039 0.684826 13.5553 0.378645 11.992 0.382762C5.438 0.382762 0.102 5.71776 0.1 12.2748C0.096963 14.3615 0.644374 16.4121 1.687 18.2198L0 24.3828L6.304 22.7288C8.04787 23.6789 10.0021 24.1767 11.988 24.1768H11.993C18.547 24.1768 23.883 18.8418 23.885 12.2838C23.8898 10.721 23.5848 9.17286 22.9874 7.7288C22.3901 6.28473 21.5124 4.97343 20.405 3.87076Z" fill="#F5F5F5"/>
</svg>
