<svg width="64" height="64" viewBox="0 0 64 64" fill="none" xmlns="http://www.w3.org/2000/svg">
<g filter="url(#filter0_d_1_770)">
<circle cx="32" cy="30" r="30" fill="#00E676"/>
</g>
<g clip-path="url(#clip0_1_770)">
<path fill-rule="evenodd" clip-rule="evenodd" d="M39.22 33.176C38.8227 32.9774 36.8747 32.02 36.512 31.8867C36.1493 31.7547 35.8853 31.6894 35.62 32.0867C35.356 32.4814 34.5973 33.3747 34.3667 33.6387C34.1347 33.904 33.904 33.936 33.508 33.7387C33.112 33.5387 31.8347 33.1214 30.3213 31.772C29.144 30.7214 28.348 29.424 28.1173 29.0267C27.8867 28.6307 28.092 28.416 28.2907 28.2187C28.4693 28.0414 28.6867 27.756 28.8853 27.5254C29.084 27.2934 29.1493 27.128 29.2813 26.8627C29.4147 26.5987 29.348 26.368 29.248 26.1694C29.1493 25.9707 28.3573 24.02 28.0267 23.2267C27.7053 22.4547 27.3787 22.56 27.136 22.5467C26.904 22.536 26.64 22.5334 26.376 22.5334C26.112 22.5334 25.6827 22.632 25.32 23.0294C24.956 23.4254 23.9333 24.384 23.9333 26.3347C23.9333 28.284 25.352 30.168 25.5507 30.4334C25.7493 30.6974 28.344 34.7 32.3187 36.416C33.2653 36.824 34.0027 37.068 34.5773 37.2494C35.5267 37.552 36.3907 37.5094 37.0733 37.4067C37.8333 37.2934 39.4173 36.448 39.748 35.5227C40.0773 34.5974 40.0773 33.804 39.9787 33.6387C39.88 33.4734 39.616 33.3747 39.2187 33.176H39.22ZM31.9907 43.0467H31.9853C29.6246 43.0471 27.3072 42.4125 25.276 41.2094L24.796 40.924L19.8067 42.2334L21.1387 37.3694L20.8253 36.8707C19.5055 34.7698 18.8071 32.3384 18.8107 29.8574C18.8133 22.5907 24.7253 16.6787 31.996 16.6787C35.516 16.6787 38.8253 18.052 41.3133 20.5427C42.5405 21.7648 43.5132 23.2181 44.175 24.8186C44.8369 26.419 45.1749 28.1348 45.1693 29.8667C45.1667 37.1334 39.2547 43.0467 31.9907 43.0467ZM43.2067 18.6507C41.7376 17.1719 39.9896 15.9994 38.0641 15.2011C36.1386 14.4028 34.0738 13.9945 31.9893 14C23.2507 14 16.136 21.1134 16.1333 29.856C16.1293 32.6384 16.8592 35.3725 18.2493 37.7827L16 46L24.4053 43.7947C26.7305 45.0615 29.3361 45.7253 31.984 45.7254H31.9907C40.7293 45.7254 47.844 38.612 47.8467 29.868C47.8531 27.7844 47.4463 25.7202 46.6499 23.7947C45.8535 21.8693 44.6831 20.1209 43.2067 18.6507Z" fill="#F5F5F5"/>
</g>
<defs>
<filter id="filter0_d_1_770" x="0" y="0" width="64" height="64" filterUnits="userSpaceOnUse" color-interpolation-filters="sRGB">
<feFlood flood-opacity="0" result="BackgroundImageFix"/>
<feColorMatrix in="SourceAlpha" type="matrix" values="0 0 0 0 0 0 0 0 0 0 0 0 0 0 0 0 0 0 127 0" result="hardAlpha"/>
<feOffset dy="2"/>
<feGaussianBlur stdDeviation="1"/>
<feComposite in2="hardAlpha" operator="out"/>
<feColorMatrix type="matrix" values="0 0 0 0 0.0431373 0 0 0 0 0.0627451 0 0 0 0 0.109804 0 0 0 1 0"/>
<feBlend mode="normal" in2="BackgroundImageFix" result="effect1_dropShadow_1_770"/>
<feBlend mode="normal" in="SourceGraphic" in2="effect1_dropShadow_1_770" result="shape"/>
</filter>
<clipPath id="clip0_1_770">
<rect width="32" height="32" fill="white" transform="translate(16 14)"/>
</clipPath>
</defs>
</svg>
